<svg xmlns:xlink="http://www.w3.org/1999/xlink" xmlns="http://www.w3.org/2000/svg" width="48" height="49" viewBox="0 0 48 49" fill="none" class="square-button-icon" dm-url="chrome-extension://nahbabjlllhocabmecfjmcblchhpoclj/">
<g clip-path="url(#clip0_1962_1446)">
<path d="M25.4404 1.45996C21.9679 1.45996 19.0166 3.63871 17.8204 6.67996C17.6291 7.17871 17.8766 7.73371 18.3754 7.92496C18.8741 8.11621 19.4291 7.86871 19.6204 7.36996C20.5391 5.03371 22.7666 3.37996 25.4404 3.37996C28.8454 3.37996 31.6804 6.21496 31.6804 9.61996C31.6804 13.025 28.8454 15.86 25.4404 15.86H0.960365C0.930365 15.86 0.900365 15.86 0.870365 15.86C0.341616 15.8862 -0.0708846 16.3362 -0.0446346 16.865C-0.0183846 17.3937 0.431616 17.8062 0.960365 17.78H25.4404C29.9066 17.78 33.6004 14.0862 33.6004 9.61996C33.6004 5.15371 29.9066 1.45996 25.4404 1.45996ZM0.780365 23.54C0.251616 23.5887 -0.138384 24.0612 -0.0896346 24.59C-0.0408846 25.1187 0.431616 25.5087 0.960365 25.46H37.8304C37.8604 25.46 37.8904 25.46 37.9204 25.46C42.4466 25.5087 46.0804 29.1725 46.0804 33.71C46.0804 38.2775 42.4129 41.7875 37.8004 41.96C34.2679 42.0462 31.4029 39.9612 30.1804 36.56C30.0754 36.2187 29.7941 35.9637 29.4454 35.8962C29.0929 35.8287 28.7366 35.96 28.5154 36.2375C28.2904 36.515 28.2379 36.8937 28.3804 37.22C29.8466 41.3075 33.5216 43.985 37.8604 43.88C43.4216 43.67 48.0004 39.3162 48.0004 33.71C48.0004 28.1937 43.5829 23.7125 38.1004 23.57C38.0704 23.5587 38.0404 23.5475 38.0104 23.54C37.9691 23.54 37.9316 23.54 37.8904 23.54C37.8716 23.54 37.8491 23.54 37.8304 23.54H0.960365C0.930365 23.54 0.900365 23.54 0.870365 23.54C0.840365 23.54 0.810365 23.54 0.780365 23.54ZM0.780365 30.26C0.251616 30.3087 -0.138384 30.7812 -0.0896346 31.31C-0.0408846 31.8387 0.431616 32.2287 0.960365 32.18H13.9204C13.9504 32.18 13.9804 32.18 14.0104 32.18C17.3741 32.2287 20.1604 35.045 20.1604 38.42C20.1604 41.825 17.3254 44.66 13.9204 44.66C11.4904 44.66 9.42037 43.34 8.43037 41.36C8.31036 41.0075 7.99537 40.76 7.62787 40.7187C7.25662 40.6775 6.89662 40.8537 6.70162 41.1725C6.51037 41.4875 6.51787 41.8887 6.72037 42.2C8.03287 44.8287 10.7816 46.58 13.9204 46.58C18.3866 46.58 22.0804 42.8862 22.0804 38.42C22.0804 34.0137 18.4879 30.3575 14.1004 30.26C14.0591 30.26 14.0216 30.26 13.9804 30.26C13.9616 30.26 13.9391 30.26 13.9204 30.26H0.960365C0.930365 30.26 0.900365 30.26 0.870365 30.26C0.840365 30.26 0.810365 30.26 0.780365 30.26Z" fill="#9974F6"/>
</g>
<defs>
<clipPath id="clip0_1962_1446">
<rect width="48" height="48" fill="white" transform="translate(0 0.5)"/>
</clipPath>
</defs>
</svg>