<svg xmlns:xlink="http://www.w3.org/1999/xlink" xmlns="http://www.w3.org/2000/svg" width="48" height="49" viewBox="0 0 48 49" fill="none" class="square-button-icon" dm-url="chrome-extension://nahbabjlllhocabmecfjmcblchhpoclj/">
<g clip-path="url(#clip0_1962_1430)">
<path d="M20.8798 0.5002C20.4523 0.57895 20.1336 0.938949 20.0998 1.3702C19.5036 8.04145 15.6486 12.4439 11.7298 17.0002C7.81109 21.5564 3.83984 26.3189 3.83984 33.4702C3.83984 38.3714 6.03359 42.1702 8.90984 44.6902C11.7861 47.2102 15.3073 48.5002 18.2398 48.5002C18.5848 48.5039 18.9073 48.3239 19.0836 48.0239C19.2561 47.7239 19.2561 47.3564 19.0836 47.0564C18.9073 46.7564 18.5848 46.5764 18.2398 46.5802C15.8923 46.5802 12.6936 45.4627 10.1698 43.2502C7.64609 41.0377 5.75984 37.8052 5.75984 33.4702C5.75984 27.0239 9.29609 22.7714 13.1998 18.2302C16.8036 14.0377 20.5948 9.53395 21.6898 3.1102C36.2286 13.3064 42.2398 23.6714 42.2398 31.4602C42.2398 38.8627 37.7211 44.8214 33.2398 46.6402C32.7411 46.8389 32.5011 47.4014 32.6998 47.9002C32.8986 48.3989 33.4611 48.6389 33.9598 48.4402C39.3486 46.2539 44.1598 39.6314 44.1598 31.4602C44.1598 22.4677 37.3498 11.3564 21.5998 0.6802C21.4161 0.54895 21.1948 0.4852 20.9698 0.5002C20.9398 0.5002 20.9098 0.5002 20.8798 0.5002ZM24.5698 15.2902C24.3073 15.3202 24.0711 15.4552 23.9098 15.6652C23.7523 15.8752 23.6886 16.1414 23.7298 16.4002C24.3148 19.7827 24.4573 22.5652 24.2698 24.6502C24.0823 26.7352 23.5611 28.1227 23.0098 28.7602C22.4586 29.3977 22.0386 29.4764 21.2098 29.1202C20.3811 28.7639 19.2111 27.7327 18.0298 25.9102C17.8611 25.6514 17.5761 25.4902 17.2648 25.4789C16.9573 25.4677 16.6611 25.6064 16.4698 25.8502C12.8886 30.6802 13.0498 34.5427 14.3098 37.0402C15.5698 39.5377 17.7898 40.7002 17.7898 40.7002C18.0936 40.9139 18.4911 40.9327 18.8173 40.7527C19.1398 40.5689 19.3273 40.2164 19.3011 39.8452C19.2748 39.4739 19.0348 39.1552 18.6898 39.0202C18.6898 39.0202 16.9798 38.1014 16.0198 36.2002C15.1498 34.4714 14.9211 31.8802 17.3398 28.1002C18.3523 29.4089 19.3723 30.4214 20.4598 30.8902C21.8661 31.4939 23.4636 31.1639 24.4498 30.0202C25.4361 28.8764 25.9798 27.1139 26.1898 24.8002C26.3361 23.1839 26.2198 21.1814 25.9798 18.9802C28.5786 21.5489 30.6861 24.3164 31.5298 27.3202C32.5873 31.0852 32.0586 35.0752 28.9798 39.2902C28.6648 39.7214 28.7586 40.3252 29.1898 40.6402C29.6211 40.9552 30.2248 40.8614 30.5398 40.4302C33.9036 35.8252 34.5973 31.0964 33.3898 26.8102C32.1823 22.5239 29.1523 18.6839 25.2898 15.5002C25.0873 15.3352 24.8286 15.2602 24.5698 15.2902Z" fill="#9974F6"/>
</g>
<defs>
<clipPath id="clip0_1962_1430">
<rect width="48" height="48" fill="white" transform="translate(0 0.5)"/>
</clipPath>
</defs>
</svg>