<svg xmlns:xlink="http://www.w3.org/1999/xlink" xmlns="http://www.w3.org/2000/svg" width="48" height="49" viewBox="0 0 48 49" fill="none" class="square-button-icon" dm-url="chrome-extension://nahbabjlllhocabmecfjmcblchhpoclj/">
<g clip-path="url(#clip0_1962_1442)">
<path d="M16.1704 4.34013C15.9004 4.38138 15.6604 4.53138 15.5104 4.76013L0.150365 27.8001C-0.149635 28.2464 -0.0258846 28.8501 0.420365 29.1501C0.866616 29.4501 1.47037 29.3264 1.77037 28.8801L16.3504 7.01013L25.5304 19.9701C25.5866 20.0976 25.6691 20.2101 25.7704 20.3001L29.1004 25.0401C29.2654 25.3814 29.6141 25.5914 29.9929 25.5801C30.3716 25.5689 30.7091 25.3364 30.8516 24.9876C30.9979 24.6351 30.9229 24.2339 30.6604 23.9601L27.6004 19.6401L33.6904 12.5901L46.2904 28.9401C46.6204 29.3564 47.2279 29.4201 47.6404 29.0901C48.0566 28.7601 48.1204 28.1526 47.7904 27.7401L34.4704 10.4601C34.2679 10.2051 33.9529 10.0701 33.6304 10.1001C33.3866 10.1264 33.1616 10.2426 33.0004 10.4301L26.4604 17.9901L17.1004 4.76013C16.8979 4.45263 16.5341 4.29138 16.1704 4.34013ZM0.780365 35.0601C0.251616 35.1089 -0.138384 35.5814 -0.0896346 36.1101C-0.0408846 36.6389 0.431616 37.0289 0.960365 36.9801H47.0404C47.3854 36.9839 47.7079 36.8039 47.8841 36.5039C48.0566 36.2039 48.0566 35.8364 47.8841 35.5364C47.7079 35.2364 47.3854 35.0564 47.0404 35.0601H0.960365C0.930365 35.0601 0.900365 35.0601 0.870365 35.0601C0.840365 35.0601 0.810365 35.0601 0.780365 35.0601ZM0.780365 42.7401C0.251616 42.7889 -0.138384 43.2614 -0.0896346 43.7901C-0.0408846 44.3189 0.431616 44.7089 0.960365 44.6601H47.0404C47.3854 44.6639 47.7079 44.4839 47.8841 44.1839C48.0566 43.8839 48.0566 43.5164 47.8841 43.2164C47.7079 42.9164 47.3854 42.7364 47.0404 42.7401H0.960365C0.930365 42.7401 0.900365 42.7401 0.870365 42.7401C0.840365 42.7401 0.810365 42.7401 0.780365 42.7401Z" fill="#9974F6"/>
</g>
<defs>
<clipPath id="clip0_1962_1442">
<rect width="48" height="48" fill="white" transform="translate(0 0.5)"/>
</clipPath>
</defs>
</svg>