<svg xmlns:xlink="http://www.w3.org/1999/xlink" xmlns="http://www.w3.org/2000/svg" width="48" height="49" viewBox="0 0 48 49" fill="none" class="square-button-icon" dm-url="chrome-extension://nahbabjlllhocabmecfjmcblchhpoclj/">
<g clip-path="url(#clip0_1962_2876)">
<path d="M21.0614 4.33997C16.0102 4.59122 12.8639 7.78997 10.1714 10.88C7.29891 14.1762 4.86141 17.3 0.841406 17.78C0.312656 17.8475 -0.0660938 18.3312 0.00140622 18.86C0.0689062 19.3887 0.552656 19.7675 1.08141 19.7C5.97891 19.115 8.82141 15.3762 11.6414 12.14C14.4614 8.90372 17.1577 6.12122 22.0514 6.25997C22.0814 6.25997 22.1114 6.25997 22.1414 6.25997C25.1377 6.28622 27.6577 8.25122 28.5014 10.97C28.5089 10.9887 28.5202 11.0112 28.5314 11.03C28.5352 11.0487 28.5277 11.0712 28.5314 11.09C28.5389 11.12 28.5502 11.15 28.5614 11.18C28.7189 11.75 28.8014 12.3575 28.8014 12.98C28.8014 14.915 28.2202 16.625 27.2414 17.81C26.2627 18.995 24.9014 19.7 23.0414 19.7C22.0552 19.7 21.0577 19.3437 20.3414 18.77C19.6252 18.1962 19.2014 17.4387 19.2014 16.52C19.2014 15.3087 19.5839 14.7012 19.9214 14.33C20.2589 13.9587 20.4914 13.88 20.4914 13.88C20.8327 13.775 21.0877 13.4937 21.1552 13.145C21.2227 12.7925 21.0914 12.4362 20.8139 12.215C20.5364 11.99 20.1577 11.9375 19.8314 12.08C19.8314 12.08 19.1039 12.35 18.4814 13.04C17.8589 13.73 17.2814 14.8775 17.2814 16.52C17.2814 18.0612 18.0577 19.3962 19.1414 20.27C20.2252 21.1437 21.6127 21.62 23.0414 21.62C25.4227 21.62 27.4252 20.6037 28.7414 19.01C30.0577 17.4162 30.7214 15.2862 30.7214 12.98C30.7214 12.3837 30.6577 11.8025 30.5414 11.24C32.5964 9.69122 35.2664 8.22497 38.4614 8.17997C38.5102 8.18372 38.5627 8.18372 38.6114 8.17997C38.6414 8.17997 38.6714 8.17997 38.7014 8.17997C43.2877 8.22122 46.0814 11.2962 46.0814 13.94C46.0814 15.4175 45.7214 16.91 44.9714 17.96C44.2214 19.01 43.1414 19.7 41.2814 19.7C39.6802 19.7 38.4014 18.4212 38.4014 16.82C38.4014 16.3062 38.5252 15.9237 38.6414 15.65C38.8477 15.1625 38.6189 14.5962 38.1314 14.39C37.6439 14.1837 37.0777 14.4125 36.8714 14.9C36.6614 15.3837 36.4814 16.0287 36.4814 16.82C36.4814 19.46 38.6414 21.62 41.2814 21.62C43.6627 21.62 45.4627 20.5662 46.5314 19.07C47.6002 17.5737 48.0014 15.7175 48.0014 13.94C48.0014 10.0287 44.1989 6.34247 38.7914 6.25997C38.7802 6.25997 38.7727 6.25997 38.7614 6.25997C38.7314 6.25997 38.7014 6.25997 38.6714 6.25997C38.6527 6.25997 38.6302 6.25997 38.6114 6.25997C38.5814 6.25997 38.5514 6.25997 38.5214 6.25997C38.4614 6.26372 38.4014 6.27497 38.3414 6.28997C34.9064 6.36497 32.0414 7.78247 29.8814 9.31997C28.5014 6.39497 25.5502 4.35122 22.1114 4.33997C21.7589 4.32872 21.3989 4.32497 21.0614 4.33997ZM12.4814 27.38C9.89766 27.38 7.96266 28.46 6.24141 29.42C4.52016 30.38 3.01266 31.22 0.961406 31.22C0.616406 31.2162 0.293907 31.3962 0.117656 31.6962C-0.0548438 31.9962 -0.0548438 32.3637 0.117656 32.6637C0.293907 32.9637 0.616406 33.1437 0.961406 33.14C3.54141 33.14 5.48016 32.06 7.20141 31.1C8.92266 30.14 10.4264 29.3 12.4814 29.3C14.5364 29.3 16.0402 30.14 17.7614 31.1C19.4827 32.06 21.4177 33.14 24.0014 33.14C26.5852 33.14 28.5202 32.06 30.2414 31.1C31.9627 30.14 33.4739 29.3 35.5214 29.3C37.5689 29.3 39.1027 30.14 40.8314 31.1C42.5602 32.06 44.4802 33.14 47.0414 33.14C47.3864 33.1437 47.7089 32.9637 47.8852 32.6637C48.0577 32.3637 48.0577 31.9962 47.8852 31.6962C47.7089 31.3962 47.3864 31.2162 47.0414 31.22C45.0164 31.22 43.4902 30.38 41.7614 29.42C40.0327 28.46 38.1014 27.38 35.5214 27.38C32.9414 27.38 31.0327 28.46 29.3114 29.42C27.5902 30.38 26.0527 31.22 24.0014 31.22C21.9502 31.22 20.4427 30.38 18.7214 29.42C17.0002 28.46 15.0652 27.38 12.4814 27.38ZM12.4814 38.9C9.89766 38.9 7.96266 39.98 6.24141 40.94C4.52016 41.9 3.01266 42.74 0.961406 42.74C0.616406 42.7362 0.293907 42.9162 0.117656 43.2162C-0.0548438 43.5162 -0.0548438 43.8837 0.117656 44.1837C0.293907 44.4837 0.616406 44.6637 0.961406 44.66C3.54141 44.66 5.48016 43.58 7.20141 42.62C8.92266 41.66 10.4264 40.82 12.4814 40.82C14.5364 40.82 16.0402 41.66 17.7614 42.62C19.4827 43.58 21.4177 44.66 24.0014 44.66C26.5852 44.66 28.5202 43.58 30.2414 42.62C31.9627 41.66 33.4739 40.82 35.5214 40.82C37.5689 40.82 39.1027 41.66 40.8314 42.62C42.5602 43.58 44.4802 44.66 47.0414 44.66C47.3864 44.6637 47.7089 44.4837 47.8852 44.1837C48.0577 43.8837 48.0577 43.5162 47.8852 43.2162C47.7089 42.9162 47.3864 42.7362 47.0414 42.74C45.0164 42.74 43.4902 41.9 41.7614 40.94C40.0327 39.98 38.1014 38.9 35.5214 38.9C32.9414 38.9 31.0327 39.98 29.3114 40.94C27.5902 41.9 26.0527 42.74 24.0014 42.74C21.9502 42.74 20.4427 41.9 18.7214 40.94C17.0002 39.98 15.0652 38.9 12.4814 38.9Z" fill="#9974F6"/>
</g>
<defs>
<clipPath id="clip0_1962_2876">
<rect width="48" height="48" fill="white" transform="translate(0 0.5)"/>
</clipPath>
</defs>
</svg>